<?xml version="1.0" encoding="UTF-8"?>
<svg width="400" height="400" viewBox="0 0 400 400" xmlns="http://www.w3.org/2000/svg">
  <!-- Monitor Body -->
  <path d="M50 80 C50 60 70 40 90 40 L310 40 C330 40 350 60 350 80 L350 280 C350 300 330 320 310 320 L90 320 C70 320 50 300 50 280 Z" fill="#2c3e50" />
  
  <!-- Screen Frame -->
  <path d="M70 70 L330 70 L330 260 L70 260 Z" fill="#34495e" />
  
  <!-- Screen -->
  <path d="M80 80 L320 80 L320 250 L80 250 Z" fill="#7f8c8d" />
  
  <!-- Screen Glare -->
  <path d="M100 100 L280 100 L260 220 L120 220 Z" fill="#95a5a6" opacity="0.3" />
  
  <!-- Stand Base -->
  <path d="M150 320 L250 320 L280 360 L120 360 Z" fill="#2c3e50" />
  
  <!-- Warning Symbol -->
  <path d="M180 140 L220 140 L210 190 L190 190 Z" fill="#f1c40f" />
  <text x="195" y="180" fill="black" font-size="30" font-weight="bold">!</text>
  
  <!-- Hazard Label -->
  <text x="160" y="300" fill="#e74c3c" font-size="20" font-weight="bold">CONTAINS LEAD</text>
</svg>