<svg width="200" height="200" viewBox="0 0 200 200" xmlns="http://www.w3.org/2000/svg">
  <defs>
    <linearGradient id="trashGradient" x1="0%" y1="0%" x2="100%" y2="100%">
      <stop offset="0%" style="stop-color:#9E9E9E;stop-opacity:0.8"/>
      <stop offset="100%" style="stop-color:#424242;stop-opacity:0.9"/>
    </linearGradient>
  </defs>
  <!-- Trash Can Body -->
  <path d="M50 60 L150 60 L140 180 L60 180 Z" fill="url(#trashGradient)"/>
  <!-- Trash Can Lid -->
  <path d="M40 60 L160 60 L150 40 L50 40 Z" fill="#757575"/>
  <!-- Handle -->
  <path d="M90 30 L110 30 L110 40 L90 40 Z" fill="#757575"/>
  <!-- Broken Electronics -->
  <g transform="translate(70, 80)">
    <rect x="0" y="0" width="60" height="10" rx="2" fill="#BDBDBD"/>
    <rect x="10" y="20" width="40" height="30" rx="2" fill="#BDBDBD"/>
    <line x1="20" y1="25" x2="40" y2="45" stroke="#757575" stroke-width="2"/>
    <line x1="40" y1="25" x2="20" y2="45" stroke="#757575" stroke-width="2"/>
  </g>
  <!-- Trash Symbol -->
  <g transform="translate(160, 40) scale(0.4)">
    <rect x="0" y="0" width="40" height="40" fill="none" stroke="#9E9E9E" stroke-width="4"/>
    <line x1="10" y1="10" x2="30" y2="30" stroke="#9E9E9E" stroke-width="4"/>
    <line x1="30" y1="10" x2="10" y2="30" stroke="#9E9E9E" stroke-width="4"/>
  </g>
</svg>