<svg width="200" height="200" viewBox="0 0 200 200" xmlns="http://www.w3.org/2000/svg">
  <defs>
    <linearGradient id="circuitGradient" x1="0%" y1="0%" x2="100%" y2="100%">
      <stop offset="0%" style="stop-color:#2196F3;stop-opacity:0.8"/>
      <stop offset="100%" style="stop-color:#1565C0;stop-opacity:0.9"/>
    </linearGradient>
  </defs>
  <!-- Circuit Board Base -->
  <rect x="30" y="30" width="140" height="140" rx="5" fill="url(#circuitGradient)"/>
  <!-- Circuit Traces -->
  <path d="M40 60 H160 M40 100 H160 M40 140 H160" stroke="#90CAF9" stroke-width="2" fill="none"/>
  <path d="M60 40 V160 M100 40 V160 M140 40 V160" stroke="#90CAF9" stroke-width="2" fill="none"/>
  <!-- Components -->
  <circle cx="60" cy="60" r="8" fill="#E3F2FD"/>
  <circle cx="140" cy="60" r="8" fill="#E3F2FD"/>
  <rect x="90" y="90" width="20" height="20" fill="#E3F2FD"/>
  <circle cx="60" cy="140" r="8" fill="#E3F2FD"/>
  <circle cx="140" cy="140" r="8" fill="#E3F2FD"/>
  <!-- Recycling Symbol -->
  <g transform="translate(160, 40) scale(0.4)">
    <path d="M50,15 L60,0 L70,15 M60,0 L60,25" stroke="#2196F3" stroke-width="4" fill="none"/>
    <path d="M15,50 L0,60 L15,70 M0,60 L25,60" stroke="#2196F3" stroke-width="4" fill="none" transform="rotate(120,60,60)"/>
    <path d="M85,50 L100,60 L85,70 M100,60 L75,60" stroke="#2196F3" stroke-width="4" fill="none" transform="rotate(240,60,60)"/>
  </g>
</svg>