<svg width="200" height="200" viewBox="0 0 200 200" xmlns="http://www.w3.org/2000/svg">
  <defs>
    <linearGradient id="laptopGradient" x1="0%" y1="0%" x2="100%" y2="100%">
      <stop offset="0%" style="stop-color:#4CAF50;stop-opacity:0.8"/>
      <stop offset="100%" style="stop-color:#2E7D32;stop-opacity:0.9"/>
    </linearGradient>
  </defs>
  <!-- Laptop Base -->
  <rect x="40" y="120" width="120" height="10" rx="2" fill="#424242"/>
  <!-- Laptop Screen -->
  <g transform="rotate(-10, 100, 90)">
    <rect x="45" y="40" width="110" height="80" rx="4" fill="url(#laptopGradient)"/>
    <rect x="50" y="45" width="100" height="70" rx="2" fill="#E8F5E9"/>
    <!-- Screen Content -->
    <circle cx="100" cy="80" r="20" fill="#4CAF50" opacity="0.6"/>
    <path d="M90 80 L110 80 M100 70 L100 90" stroke="#2E7D32" stroke-width="3"/>
  </g>
  <!-- Recycling Symbol -->
  <g transform="translate(160, 40) scale(0.4)">
    <path d="M50,15 L60,0 L70,15 M60,0 L60,25" stroke="#4CAF50" stroke-width="4" fill="none"/>
    <path d="M15,50 L0,60 L15,70 M0,60 L25,60" stroke="#4CAF50" stroke-width="4" fill="none" transform="rotate(120,60,60)"/>
    <path d="M85,50 L100,60 L85,70 M100,60 L75,60" stroke="#4CAF50" stroke-width="4" fill="none" transform="rotate(240,60,60)"/>
  </g>
</svg>